<?xml version="1.0" encoding="UTF-8"?>
<svg width="30px" height="30px" viewBox="0 0 30 30" version="1.1" xmlns="http://www.w3.org/2000/svg" xmlns:xlink="http://www.w3.org/1999/xlink">
    <!-- Generator: sketchtool 61.2 (101010) - https://sketch.com -->
    <title>22E40DB7-6A7E-473D-B63E-0312447B5089</title>
    <desc>Created with sketchtool.</desc>
    <g id="Asset-Artboard-Page" stroke="none" stroke-width="1" fill="none" fill-rule="evenodd">
        <g id="Icon-/-Light-Mode">
            <rect id="Rectangle" fill="#FFFFFF" x="14.5" y="3" width="1" height="4" rx="0.5"></rect>
            <rect id="Rectangle-Copy" fill="#FFFFFF" x="14.5" y="23" width="1" height="4" rx="0.5"></rect>
            <rect id="Rectangle" fill="#FFFFFF" transform="translate(25.000000, 15.000000) rotate(-270.000000) translate(-25.000000, -15.000000) " x="24.5" y="13" width="1" height="4" rx="0.5"></rect>
            <rect id="Rectangle-Copy" fill="#FFFFFF" transform="translate(5.000000, 15.000000) rotate(-270.000000) translate(-5.000000, -15.000000) " x="4.5" y="13" width="1" height="4" rx="0.5"></rect>
            <rect id="Rectangle" fill="#FFFFFF" transform="translate(22.071068, 7.928932) rotate(-315.000000) translate(-22.071068, -7.928932) " x="21.5710678" y="5.92893219" width="1" height="4" rx="0.5"></rect>
            <rect id="Rectangle-Copy" fill="#FFFFFF" transform="translate(7.928932, 22.071068) rotate(-315.000000) translate(-7.928932, -22.071068) " x="7.42893219" y="20.0710678" width="1" height="4" rx="0.5"></rect>
            <rect id="Rectangle" fill="#FFFFFF" transform="translate(22.071068, 22.071068) rotate(-225.000000) translate(-22.071068, -22.071068) " x="21.5710678" y="20.0710678" width="1" height="4" rx="0.5"></rect>
            <rect id="Rectangle-Copy" fill="#FFFFFF" transform="translate(7.928932, 7.928932) rotate(-225.000000) translate(-7.928932, -7.928932) " x="7.42893219" y="5.92893219" width="1" height="4" rx="0.5"></rect>
            <circle id="Oval" stroke="#FFFFFF" cx="15" cy="15" r="5"></circle>
        </g>
    </g>
</svg>