<?xml version="1.0" encoding="UTF-8"?>
<svg width="433px" height="322px" viewBox="0 0 433 322" version="1.1" xmlns="http://www.w3.org/2000/svg" xmlns:xlink="http://www.w3.org/1999/xlink">
    <!-- Generator: sketchtool 61.2 (101010) - https://sketch.com -->
    <title>A54AD700-6D39-4070-82EC-0B6A8CBB974B</title>
    <desc>Created with sketchtool.</desc>
    <defs>
        <filter x="-22.5%" y="-30.1%" width="144.7%" height="160.3%" filterUnits="objectBoundingBox" id="filter-1">
            <feOffset dx="20" dy="20" in="SourceAlpha" result="shadowOffsetOuter1"></feOffset>
            <feGaussianBlur stdDeviation="12.5" in="shadowOffsetOuter1" result="shadowBlurOuter1"></feGaussianBlur>
            <feColorMatrix values="0 0 0 0 0   0 0 0 0 0   0 0 0 0 0  0 0 0 0.2 0" type="matrix" in="shadowBlurOuter1" result="shadowMatrixOuter1"></feColorMatrix>
            <feMerge>
                <feMergeNode in="shadowMatrixOuter1"></feMergeNode>
                <feMergeNode in="SourceGraphic"></feMergeNode>
            </feMerge>
        </filter>
        <ellipse id="path-2" cx="238.5" cy="143" rx="123" ry="103"></ellipse>
        <ellipse id="path-4" cx="87.5" cy="127" rx="57" ry="59"></ellipse>
        <ellipse id="path-6" cx="197" cy="143.5" rx="163.5" ry="143.5"></ellipse>
        <polygon id="path-8" points="0 216.559838 330 216.559838 330 0.259255578 0 0.259255578"></polygon>
        <polygon id="path-10" points="0.1232 38.992215 6.9872 186.112053 110.88 177.078162 94.32412 24.9792089 18.03076 0.0642636917"></polygon>
        <linearGradient x1="49.9999816%" y1="-40.3063226%" x2="49.9999816%" y2="64.6268262%" id="linearGradient-12">
            <stop stop-color="#FFFFFF" offset="0%"></stop>
            <stop stop-color="#FFFFFF" stop-opacity="0" offset="100%"></stop>
        </linearGradient>
        <polygon id="path-13" points="16.55588 24.9792089 0 177.078162 103.89236 186.112053 110.7568 38.992215 92.8488 0.0642636917"></polygon>
        <polygon id="path-15" points="17.13316 0.324399594 0.28292 188.480126 151.74236 188.480126 131.63832 0.324399594"></polygon>
        <linearGradient x1="50.0000301%" y1="-29.8379928%" x2="50.0000301%" y2="61.6909785%" id="linearGradient-17">
            <stop stop-color="#FFFFFF" offset="0%"></stop>
            <stop stop-color="#FFFFFF" stop-opacity="0" offset="100%"></stop>
        </linearGradient>
        <polygon id="path-18" points="0 216.559838 330 216.559838 330 0.259255578 0 0.259255578"></polygon>
    </defs>
    <g id="Osu-Responsive" stroke="none" stroke-width="1" fill="none" fill-rule="evenodd">
        <g id="Assets" transform="translate(-426.000000, -1000.000000)">
            <g id="Group-6" filter="url(#filter-1)" transform="translate(420.000000, 990.000000)">
                <ellipse id="Oval" fill="#111213" cx="150" cy="91" rx="98" ry="76"></ellipse>
                <ellipse id="Oval" fill="#111213" cx="316" cy="221" rx="76" ry="66"></ellipse>
                <ellipse id="Oval-Copy" fill="#111213" cx="64" cy="204" rx="54" ry="57"></ellipse>
                <ellipse id="Oval" fill="#202227" cx="197.5" cy="189" rx="140" ry="98"></ellipse>
                <mask id="mask-3" fill="white">
                    <use xlink:href="#path-2"></use>
                </mask>
                <use id="Oval" fill="#202227" xlink:href="#path-2"></use>
                <mask id="mask-5" fill="white">
                    <use xlink:href="#path-4"></use>
                </mask>
                <use id="Oval-Copy-2" fill="#202227" xlink:href="#path-4"></use>
                <mask id="mask-7" fill="white">
                    <use xlink:href="#path-6"></use>
                </mask>
                <g id="Oval-Copy-2"></g>
                <g id="Group-163" mask="url(#mask-7)">
                    <g transform="translate(30.500000, 107.000000)">
                        <polygon id="Fill-1" fill="#190726" points="0.00572 140.893302 330 140.893302 330 105.111631 0.00572 105.111631"></polygon>
                        <g id="Group-103" stroke-width="1" fill="none" transform="translate(0.000000, 0.180907)">
                            <path d="M330,38.2905963 L330,137.212225 L0,137.212225 L0,38.294998 C30.8264,31.4152617 93.1436,26.7138884 165.0044,26.7138884 C236.8564,26.7138884 299.1736,31.4152617 330,38.2905963" id="Fill-6" fill="#521A78"></path>
                            <path d="M330,38.2905963 L330,115.684329 C299.1736,98.1042475 262.8912,78.3229148 165.0044,78.3229148 C73.128,78.3229148 30.8264,98.1042475 0,115.68873 L0,38.294998 C30.8264,31.4152617 93.1436,26.7138884 165.0044,26.7138884 C236.8564,26.7138884 299.1736,31.4152617 330,38.2905963" id="Fill-8" fill="#421263"></path>
                            <path d="M330,38.2905963 L330,88.0465396 C299.1736,72.7200892 236.8564,62.2398256 165.0044,62.2398256 C93.1436,62.2398256 30.8264,72.7200892 0,88.0509412 L0,38.294998 C30.8264,31.4152617 93.1436,26.7138884 165.0044,26.7138884 C236.8564,26.7138884 299.1736,31.4152617 330,38.2905963" id="Fill-10" fill="#350E4F"></path>
                            <mask id="mask-9" fill="white">
                                <use xlink:href="#path-8"></use>
                            </mask>
                            <g id="Clip-13"></g>
                            <polygon id="Fill-12" fill="#606060" mask="url(#mask-9)" points="0 144.211245 330 144.211245 330 137.213986 0 137.213986"></polygon>
                            <polygon id="Fill-14" fill="#7E24BF" mask="url(#mask-9)" points="127.545 77.7093286 128.37924 77.7093286 128.37924 47.4521339 127.545 47.4521339"></polygon>
                            <path d="M127.962428,74.9848122 C127.201668,74.9848122 126.584788,75.6019197 126.584788,76.3634004 L126.584788,85.4496702 L129.340068,85.4496702 L129.340068,76.3634004 C129.340068,75.6019197 128.723188,74.9848122 127.962428,74.9848122" id="Fill-15" fill="#7E24BF" mask="url(#mask-9)"></path>
                            <polygon id="Fill-16" fill="#2A0C40" mask="url(#mask-9)" points="92.26844 107.229252 163.65624 107.229252 163.65624 78.0645396 92.26844 78.0645396"></polygon>
                            <polygon id="Fill-17" fill="#AB43F7" mask="url(#mask-9)" points="157.402476 85.4287625 157.402476 90.6394034 151.704476 90.6394034 151.704476 94.4393243 161.201436 94.4393243 161.201436 90.6394034 161.201436 85.4287625"></polygon>
                            <polygon id="Fill-18" fill="#AB43F7" mask="url(#mask-9)" points="151.70452 99.649217 161.20148 99.649217 161.20148 95.8492961 151.70452 95.8492961"></polygon>
                            <polygon id="Fill-19" fill="#AB43F7" mask="url(#mask-9)" points="94.7232 84.0190548 98.52216 84.0190548 98.52216 80.2186937 94.7232 80.2186937"></polygon>
                            <polygon id="Fill-20" fill="#AB43F7" mask="url(#mask-9)" points="100.4212 84.0190548 104.22016 84.0190548 104.22016 80.2186937 100.4212 80.2186937"></polygon>
                            <polygon id="Fill-21" fill="#AB43F7" mask="url(#mask-9)" points="106.11964 84.0190548 109.91816 84.0190548 109.91816 80.2186937 106.11964 80.2186937"></polygon>
                            <polygon id="Fill-22" fill="#AB43F7" mask="url(#mask-9)" points="111.81808 84.0190548 115.6166 84.0190548 115.6166 80.2186937 111.81808 80.2186937"></polygon>
                            <polygon id="Fill-23" fill="#AB43F7" mask="url(#mask-9)" points="117.51608 84.0190548 121.3146 84.0190548 121.3146 80.2186937 117.51608 80.2186937"></polygon>
                            <polygon id="Fill-24" fill="#AB43F7" mask="url(#mask-9)" points="123.21408 84.0190548 127.0126 84.0190548 127.0126 80.2186937 123.21408 80.2186937"></polygon>
                            <polygon id="Fill-25" fill="#F743EE" mask="url(#mask-9)" points="128.91208 84.0190548 132.7106 84.0190548 132.7106 80.2186937 128.91208 80.2186937"></polygon>
                            <polygon id="Fill-26" fill="#AB43F7" mask="url(#mask-9)" points="134.61008 84.0190548 138.4086 84.0190548 138.4086 80.2186937 134.61008 80.2186937"></polygon>
                            <polygon id="Fill-27" fill="#AB43F7" mask="url(#mask-9)" points="140.30852 84.0190548 144.10704 84.0190548 144.10704 80.2186937 140.30852 80.2186937"></polygon>
                            <polygon id="Fill-28" fill="#AB43F7" mask="url(#mask-9)" points="146.00652 84.0190548 149.80504 84.0190548 149.80504 80.2186937 146.00652 80.2186937"></polygon>
                            <polygon id="Fill-29" fill="#F743EE" mask="url(#mask-9)" points="151.70452 84.0190548 155.50348 84.0190548 155.50348 80.2186937 151.70452 80.2186937"></polygon>
                            <polygon id="Fill-30" fill="#AB43F7" mask="url(#mask-9)" points="157.40252 84.0190548 161.20148 84.0190548 161.20148 80.2186937 157.40252 80.2186937"></polygon>
                            <polygon id="Fill-31" fill="#AB43F7" mask="url(#mask-9)" points="94.7232 89.2292556 98.52216 89.2292556 98.52216 85.4288945 94.7232 85.4288945"></polygon>
                            <polygon id="Fill-32" fill="#AB43F7" mask="url(#mask-9)" points="100.4212 89.2292556 104.22016 89.2292556 104.22016 85.4288945 100.4212 85.4288945"></polygon>
                            <polygon id="Fill-33" fill="#AB43F7" mask="url(#mask-9)" points="106.11964 89.2292556 109.91816 89.2292556 109.91816 85.4288945 106.11964 85.4288945"></polygon>
                            <polygon id="Fill-34" fill="#AB43F7" mask="url(#mask-9)" points="111.81808 89.2292556 115.6166 89.2292556 115.6166 85.4288945 111.81808 85.4288945"></polygon>
                            <polygon id="Fill-35" fill="#AB43F7" mask="url(#mask-9)" points="117.51608 89.2292556 121.3146 89.2292556 121.3146 85.4288945 117.51608 85.4288945"></polygon>
                            <polygon id="Fill-36" fill="#AB43F7" mask="url(#mask-9)" points="123.21408 89.2292556 127.0126 89.2292556 127.0126 85.4288945 123.21408 85.4288945"></polygon>
                            <polygon id="Fill-37" fill="#AB43F7" mask="url(#mask-9)" points="128.91208 89.2292556 132.7106 89.2292556 132.7106 85.4288945 128.91208 85.4288945"></polygon>
                            <polygon id="Fill-38" fill="#F743EE" mask="url(#mask-9)" points="134.61008 89.2292556 138.4086 89.2292556 138.4086 85.4288945 134.61008 85.4288945"></polygon>
                            <polygon id="Fill-39" fill="#AB43F7" mask="url(#mask-9)" points="140.30852 89.2292556 144.10704 89.2292556 144.10704 85.4288945 140.30852 85.4288945"></polygon>
                            <polygon id="Fill-40" fill="#F743EE" mask="url(#mask-9)" points="146.00652 89.2292556 149.80504 89.2292556 149.80504 85.4288945 146.00652 85.4288945"></polygon>
                            <polygon id="Fill-41" fill="#AB43F7" mask="url(#mask-9)" points="151.70452 89.2292556 155.50348 89.2292556 155.50348 85.4288945 151.70452 85.4288945"></polygon>
                            <polygon id="Fill-42" fill="#AB43F7" mask="url(#mask-9)" points="94.7232 94.4390162 104.22016 94.4390162 104.22016 90.6390953 94.7232 90.6390953"></polygon>
                            <polygon id="Fill-43" fill="#AB43F7" mask="url(#mask-9)" points="106.11964 94.4390162 109.91816 94.4390162 109.91816 90.6390953 106.11964 90.6390953"></polygon>
                            <polygon id="Fill-44" fill="#AB43F7" mask="url(#mask-9)" points="111.81808 94.4390162 115.6166 94.4390162 115.6166 90.6390953 111.81808 90.6390953"></polygon>
                            <polygon id="Fill-45" fill="#AB43F7" mask="url(#mask-9)" points="117.51608 94.4390162 121.3146 94.4390162 121.3146 90.6390953 117.51608 90.6390953"></polygon>
                            <polygon id="Fill-46" fill="#F743EE" mask="url(#mask-9)" points="123.21408 94.4390162 127.0126 94.4390162 127.0126 90.6390953 123.21408 90.6390953"></polygon>
                            <polygon id="Fill-47" fill="#AB43F7" mask="url(#mask-9)" points="128.91208 94.4390162 132.7106 94.4390162 132.7106 90.6390953 128.91208 90.6390953"></polygon>
                            <polygon id="Fill-48" fill="#AB43F7" mask="url(#mask-9)" points="134.61008 94.4390162 138.4086 94.4390162 138.4086 90.6390953 134.61008 90.6390953"></polygon>
                            <polygon id="Fill-49" fill="#F743EE" mask="url(#mask-9)" points="140.30852 94.4390162 144.10704 94.4390162 144.10704 90.6390953 140.30852 90.6390953"></polygon>
                            <polygon id="Fill-50" fill="#AB43F7" mask="url(#mask-9)" points="146.00652 94.4390162 149.80504 94.4390162 149.80504 90.6390953 146.00652 90.6390953"></polygon>
                            <polygon id="Fill-51" fill="#AB43F7" mask="url(#mask-9)" points="94.7232 99.649217 104.22016 99.649217 104.22016 95.8492961 94.7232 95.8492961"></polygon>
                            <polygon id="Fill-52" fill="#AB43F7" mask="url(#mask-9)" points="106.11964 99.649217 109.91816 99.649217 109.91816 95.8492961 106.11964 95.8492961"></polygon>
                            <polygon id="Fill-53" fill="#AB43F7" mask="url(#mask-9)" points="111.81808 99.649217 115.6166 99.649217 115.6166 95.8492961 111.81808 95.8492961"></polygon>
                            <polygon id="Fill-54" fill="#AB43F7" mask="url(#mask-9)" points="117.51608 99.649217 121.3146 99.649217 121.3146 95.8492961 117.51608 95.8492961"></polygon>
                            <polygon id="Fill-55" fill="#AB43F7" mask="url(#mask-9)" points="123.21408 99.649217 127.0126 99.649217 127.0126 95.8492961 123.21408 95.8492961"></polygon>
                            <polygon id="Fill-56" fill="#AB43F7" mask="url(#mask-9)" points="128.91208 99.649217 132.7106 99.649217 132.7106 95.8492961 128.91208 95.8492961"></polygon>
                            <polygon id="Fill-57" fill="#F743EE" mask="url(#mask-9)" points="134.61008 99.649217 138.4086 99.649217 138.4086 95.8492961 134.61008 95.8492961"></polygon>
                            <polygon id="Fill-58" fill="#AB43F7" mask="url(#mask-9)" points="140.30852 99.649217 144.10704 99.649217 144.10704 95.8492961 140.30852 95.8492961"></polygon>
                            <polygon id="Fill-59" fill="#AB43F7" mask="url(#mask-9)" points="146.00652 99.649217 149.80504 99.649217 149.80504 95.8492961 146.00652 95.8492961"></polygon>
                            <polygon id="Fill-60" fill="#AB43F7" mask="url(#mask-9)" points="94.7232 104.859858 98.52216 104.859858 98.52216 101.059497 94.7232 101.059497"></polygon>
                            <polygon id="Fill-61" fill="#AB43F7" mask="url(#mask-9)" points="100.4212 104.859858 104.22016 104.859858 104.22016 101.059497 100.4212 101.059497"></polygon>
                            <polygon id="Fill-62" fill="#AB43F7" mask="url(#mask-9)" points="106.11964 104.859858 109.91816 104.859858 109.91816 101.059497 106.11964 101.059497"></polygon>
                            <polygon id="Fill-63" fill="#AB43F7" mask="url(#mask-9)" points="111.81808 104.859858 115.6166 104.859858 115.6166 101.059497 111.81808 101.059497"></polygon>
                            <polygon id="Fill-64" fill="#AB43F7" mask="url(#mask-9)" points="117.51564 104.859858 138.4086 104.859858 138.4086 101.059497 117.51564 101.059497"></polygon>
                            <polygon id="Fill-65" fill="#AB43F7" mask="url(#mask-9)" points="140.30852 104.859858 144.10704 104.859858 144.10704 101.059497 140.30852 101.059497"></polygon>
                            <polygon id="Fill-66" fill="#AB43F7" mask="url(#mask-9)" points="146.00652 104.859858 149.80504 104.859858 149.80504 101.059497 146.00652 101.059497"></polygon>
                            <polygon id="Fill-67" fill="#AB43F7" mask="url(#mask-9)" points="151.70452 104.859858 155.50348 104.859858 155.50348 101.059497 151.70452 101.059497"></polygon>
                            <polygon id="Fill-68" fill="#AB43F7" mask="url(#mask-9)" points="157.40252 104.859858 161.20148 104.859858 161.20148 101.059497 157.40252 101.059497"></polygon>
                            <path d="M219.509532,81.1204542 C221.107172,81.1204542 222.522212,82.1517544 223.011932,83.6729552 L225.359772,90.9660039 C225.835412,92.4445089 225.904492,94.0317341 225.500132,95.5304866 C224.835292,97.9953953 223.106532,101.172927 218.613252,101.172927 C211.273612,101.172927 211.31057,95.3209694 211.31057,92.6932006 L211.31057,84.1302838 C211.31057,82.468231 212.657852,81.1204542 214.319292,81.1204542 L219.509532,81.1204542 Z" id="Fill-69" fill="#2A0C40" mask="url(#mask-9)"></path>
                            <path d="M217.935784,82.4168641 C217.430224,82.5181014 217.101984,83.0110832 217.203624,83.5168296 L217.954264,87.2582089 C218.055904,87.7639554 218.548264,88.0923164 219.054264,87.9906389 C219.559824,87.8889615 219.887624,87.3964199 219.785984,86.8902333 L219.035784,83.1492941 C218.934144,82.6435477 218.441784,82.3156268 217.935784,82.4168641" id="Fill-70" fill="#AB43F7" mask="url(#mask-9)"></path>
                            <polygon id="Fill-71" fill="#AB43F7" mask="url(#mask-9)" points="211.31066 89.7392716 215.03174 91.3159329 215.03174 89.7898903 211.31066 88.2286347"></polygon>
                            <polygon id="Fill-72" fill="#C1F24D" mask="url(#mask-9)" points="215.03152 92.7980473 211.31044 91.2363515 211.31044 92.6932886 211.31044 92.7474286 215.03152 94.3240899"></polygon>
                            <path d="M215.03152,97.3316306 L215.03152,95.805588 L211.34432,94.2584176 C211.37336,94.7619633 211.42748,95.3007219 211.53088,95.8482838 L215.03152,97.3316306 Z" id="Fill-73" fill="#AB43F7" mask="url(#mask-9)"></path>
                            <polygon id="Fill-74" fill="#190726" mask="url(#mask-9)" points="298.809632 109.780432 278.723192 129.87428 164.999912 129.87428 51.277072 129.87428 31.190192 109.780432 -8.8e-05 109.780432 -8.8e-05 140.252426 164.999912 140.252426 329.999912 140.252426 329.999912 109.780432"></polygon>
                            <polygon id="Fill-75" fill="#190726" mask="url(#mask-9)" points="286.428824 118.386793 283.506344 118.386793 273.885304 128.011821 276.807344 128.011821"></polygon>
                            <polygon id="Fill-76" fill="#190726" mask="url(#mask-9)" points="56.114828 128.011909 46.493348 118.386881 43.571308 118.386881 53.192348 128.011909"></polygon>
                            <path d="M147.815932,49.4377939 L147.815932,61.4467412 C147.815932,63.7285424 149.664812,65.5781043 151.945332,65.5781043 L178.059772,65.5781043 C180.340732,65.5781043 182.189612,63.7285424 182.189612,61.4467412 L182.189612,49.4377939 L147.815932,49.4377939 Z" id="Fill-77" fill="#606060" mask="url(#mask-9)"></path>
                            <path d="M226.107376,4.14707688 L226.094616,4.14707688 C225.984616,2.06466917 224.276976,0.259123529 222.001296,0.259123529 L165.000176,0.259123529 L107.998616,0.259123529 C105.722936,0.259123529 104.015296,2.06466917 103.905296,4.14707688 L103.899576,4.14707688 L103.899576,4.23158803 C103.898086,4.30641562 103.898086,4.38080304 103.899576,4.45607079 L103.899576,10.3987016 L105.941616,10.3987016 L118.504496,42.7537097 C119.402096,45.065442 121.626736,46.5884034 124.106136,46.5884034 L165.000176,46.5884034 L205.894216,46.5884034 C208.373176,46.5884034 210.597816,45.065442 211.495416,42.7537097 L224.058296,10.3987016 L226.107376,10.3987016 L226.107376,4.14707688 Z" id="Fill-78" fill="#2C353C" mask="url(#mask-9)"></path>
                            <path d="M165,6.49873185 L107.99844,6.49873185 C105.11424,6.49873185 103.13028,9.39852089 104.17484,12.0879124 L118.50476,48.9933181 C119.40236,51.3050503 121.627,52.8280118 124.10596,52.8280118 L165,52.8280118 L205.89404,52.8280118 C208.373,52.8280118 210.59764,51.3050503 211.49524,48.9933181 L225.82516,12.0879124 C226.86972,9.39852089 224.88576,6.49873185 222.00156,6.49873185 L165,6.49873185 Z" id="Fill-79" fill="#111213" mask="url(#mask-9)"></path>
                            <path d="M124.105784,48.9976316 C123.199384,48.9976316 122.401664,48.4518304 122.073864,47.6062787 L107.743944,10.7013132 C107.726784,10.6577371 107.691584,10.5670637 107.772984,10.4482199 C107.854384,10.3289359 107.952064,10.3289359 107.998704,10.3289359 L222.001384,10.3289359 C222.048024,10.3289359 222.145264,10.3289359 222.226664,10.4477797 C222.308064,10.5666235 222.272864,10.6577371 222.255704,10.7013132 L207.926224,47.6067189 C207.597984,48.4518304 206.800264,48.9976316 205.893864,48.9976316 L124.105784,48.9976316 Z" id="Fill-80" fill="#FFFFFF" mask="url(#mask-9)"></path>
                            <path d="M222.22662,10.4477357 C222.14522,10.3288919 222.04798,10.3288919 222.00134,10.3288919 L221.21286,10.3288919 L207.2235,46.3588148 C206.89526,47.2034862 206.09754,47.7497276 205.19114,47.7497276 L124.80886,47.7497276 C123.90246,47.7497276 123.10518,47.2034862 122.77694,46.3583746 L108.78714,10.3288919 L107.99866,10.3288919 C107.95202,10.3288919 107.85434,10.3288919 107.77294,10.4481759 C107.69154,10.5670197 107.72674,10.6576931 107.7439,10.7012692 L122.07382,47.6062347 C122.40162,48.4517864 123.19934,48.9975876 124.10574,48.9975876 L205.89382,48.9975876 C206.80022,48.9975876 207.59794,48.4517864 207.92618,47.6066748 L222.25566,10.7012692 C222.27282,10.6576931 222.30802,10.5670197 222.22662,10.4477357" id="Fill-81" fill="#606060" mask="url(#mask-9)"></path>
                            <path d="M193.788188,50.436302 L191.240148,50.436302 C190.935228,50.436302 190.687948,50.6836732 190.687948,50.9887057 C190.687948,51.2937381 190.935228,51.5415495 191.240148,51.5415495 L193.788188,51.5415495 C194.093108,51.5415495 194.340388,51.2937381 194.340388,50.9887057 C194.340388,50.6836732 194.093108,50.436302 193.788188,50.436302" id="Fill-82" fill="#F9EEA5" mask="url(#mask-9)"></path>
                            <path d="M199.609608,50.436302 L197.061568,50.436302 C196.756648,50.436302 196.509368,50.6836732 196.509368,50.9887057 C196.509368,51.2937381 196.756648,51.5415495 197.061568,51.5415495 L199.609608,51.5415495 C199.914528,51.5415495 200.161808,51.2937381 200.161808,50.9887057 C200.161808,50.6836732 199.914528,50.436302 199.609608,50.436302" id="Fill-83" fill="#B457FF" mask="url(#mask-9)"></path>
                            <polygon id="Fill-84" fill="#202227" mask="url(#mask-9)" points="147.8158 56.9878093 182.18948 56.9878093 182.18948 52.8278357 147.8158 52.8278357"></polygon>
                            <path d="M231.084876,56.0518043 L228.082756,64.5680639 C227.236636,66.9682688 228.523636,69.5960375 230.938356,70.397573 L252.256796,77.4753824 C254.608596,78.2557901 257.152676,77.0088103 257.976796,74.6711085 L261.035236,65.9955101 L231.084876,56.0518043 Z" id="Fill-85" fill="#606060" mask="url(#mask-9)"></path>
                            <polygon id="Fill-86" fill="#202227" mask="url(#mask-9)" points="259.051716 71.6217083 261.035236 65.9955542 231.084876 56.0518483 229.101356 61.6780024"></polygon>
                            <path d="M317.484288,36.973983 L317.484288,31.6400966 C317.484288,29.579697 316.137888,27.7459809 314.130608,27.0729728 L239.459088,2.04226491 C236.542328,1.06422434 233.343968,2.45381663 232.152888,5.21715538 L216.310248,41.9614617 C215.691168,43.397271 215.372168,44.9382791 215.372168,46.4946929 L215.372168,50.5428653 L266.386648,51.2995043 L317.484288,36.973983 Z" id="Fill-87" fill="#2C353C" mask="url(#mask-9)"></path>
                            <path d="M233.789952,9.70196876 L215.680872,48.7091493 C214.839152,50.5221777 215.785592,52.6450803 217.723352,53.2899181 L285.928632,76.0062527 C287.383712,76.4904312 288.993672,75.9908471 289.888192,74.7764394 L316.833352,38.2121594 C318.193392,36.3669992 317.328352,33.7713623 315.112952,33.0477355 L238.072032,7.8885002 C236.376712,7.33477606 234.524752,8.11870507 233.789952,9.70196876" id="Fill-88" fill="#111213" mask="url(#mask-9)"></path>
                            <polygon id="Fill-89" fill="#FFFFFF" mask="url(#mask-9)" points="219.329264 49.896443 237.151024 11.5081306 313.443944 36.423516 286.925584 72.4089826"></polygon>
                            <polygon id="Fill-90" fill="#606060" mask="url(#mask-9)" points="312.329952 36.0596779 286.509432 71.0979152 219.801032 48.8802844 219.329352 49.8966191 286.925672 72.4091586 313.444032 36.4232519"></polygon>
                            <path d="M273.51522,69.2493657 L271.11018,68.4328647 C270.82242,68.3347085 270.50738,68.4821629 270.40662,68.7616659 C270.30586,69.0407288 270.45722,69.3466416 270.74542,69.4439174 L273.15002,70.2612988 C273.43822,70.3590148 273.75326,70.2120006 273.85402,69.9324976 C273.95478,69.6529945 273.80298,69.3470817 273.51522,69.2493657" id="Fill-91" fill="#F9EEA5" mask="url(#mask-9)"></path>
                            <path d="M279.009852,71.1157858 L276.604812,70.2992848 C276.317052,70.2011286 276.002012,70.348583 275.901252,70.628086 C275.800492,70.9067087 275.952292,71.2130617 276.240052,71.3103375 L278.644652,72.1277189 C278.932852,72.2254349 279.247892,72.0784207 279.348652,71.7989176 C279.449412,71.5194146 279.297612,71.2135018 279.009852,71.1157858" id="Fill-92" fill="#B457FF" mask="url(#mask-9)"></path>
                            <path d="M235.163896,3.03034118 C234.679896,3.05322961 234.306336,3.46390101 234.329216,3.94807951 L234.449776,6.51906734 C234.472656,7.00280568 234.883176,7.37694361 235.367176,7.35449533 C235.851176,7.3316069 236.224736,6.9209355 236.201856,6.436757 L236.081296,3.86532901 C236.058416,3.38159067 235.647896,3.00745274 235.163896,3.03034118" id="Fill-93" fill="#606060" mask="url(#mask-9)"></path>
                            <path d="M98.915124,56.0518043 L101.917244,64.5680639 C102.763364,66.9682688 101.476364,69.5960375 99.061644,70.397573 L77.743204,77.4753824 C75.391404,78.2557901 72.847324,77.0088103 72.023204,74.6711085 L68.964764,65.9955101 L98.915124,56.0518043 Z" id="Fill-94" fill="#606060" mask="url(#mask-9)"></path>
                            <polygon id="Fill-95" fill="#202227" mask="url(#mask-9)" points="70.948284 71.6217083 68.964764 65.9955542 98.915124 56.0518483 100.898644 61.6780024"></polygon>
                            <path d="M12.515712,36.973983 L12.515712,31.6400966 C12.515712,29.579697 13.862112,27.7459809 15.869392,27.0729728 L90.540912,2.04226491 C93.457672,1.06422434 96.656032,2.45381663 97.847112,5.21715538 L113.689752,41.9614617 C114.308832,43.397271 114.627832,44.9382791 114.627832,46.4946929 L114.627832,50.5428653 L63.613352,51.2995043 L12.515712,36.973983 Z" id="Fill-96" fill="#2C353C" mask="url(#mask-9)"></path>
                            <path d="M96.210048,9.70196876 L114.319128,48.7091493 C115.160848,50.5221777 114.214408,52.6450803 112.276648,53.2899181 L44.071368,76.0062527 C42.616288,76.4904312 41.006328,75.9908471 40.111808,74.7764394 L13.166648,38.2121594 C11.806608,36.3669992 12.671648,33.7713623 14.887048,33.0477355 L91.927968,7.8885002 C93.623288,7.33477606 95.475248,8.11870507 96.210048,9.70196876" id="Fill-97" fill="#111213" mask="url(#mask-9)"></path>
                            <polygon id="Fill-98" fill="#FFFFFF" mask="url(#mask-9)" points="110.670736 49.896443 92.848976 11.5081306 16.556056 36.423516 43.074416 72.4089826"></polygon>
                            <polygon id="Fill-99" fill="#606060" mask="url(#mask-9)" points="17.670048 36.0596779 43.490568 71.0979152 110.198968 48.8802844 110.670648 49.8966191 43.074328 72.4091586 16.555968 36.4232519"></polygon>
                            <path d="M100.75956,54.7601481 L98.3532,55.5726876 C98.065,55.6695233 97.90396,55.9780771 97.99372,56.2611014 C98.08304,56.5445659 98.38928,56.6951014 98.67748,56.5978256 L101.08384,55.785286 C101.37204,55.6880101 101.53308,55.3798966 101.44332,55.0968722 C101.354,54.8134077 101.04776,54.6628722 100.75956,54.7601481" id="Fill-100" fill="#F9EEA5" mask="url(#mask-9)"></path>
                            <path d="M106.257844,52.9040718 L103.851484,53.7166114 C103.563284,53.8134471 103.402244,54.122441 103.492004,54.4050252 C103.581324,54.6884897 103.887564,54.8390252 104.175764,54.7421895 L106.582124,53.9296499 C106.870324,53.832374 107.031364,53.5238203 106.941604,53.2412361 C106.852284,52.9577716 106.546044,52.8067959 106.257844,52.9040718" id="Fill-101" fill="#B457FF" mask="url(#mask-9)"></path>
                            <path d="M94.836104,3.03034118 C95.320104,3.05322961 95.693664,3.46390101 95.670784,3.94807951 L95.550224,6.51906734 C95.527344,7.00280568 95.116824,7.37694361 94.632824,7.35449533 C94.148824,7.3316069 93.775264,6.9209355 93.798144,6.436757 L93.918704,3.86532901 C93.941584,3.38159067 94.352104,3.00745274 94.836104,3.03034118" id="Fill-102" fill="#606060" mask="url(#mask-9)"></path>
                        </g>
                        <g id="Group-106" stroke-width="1" fill="none" transform="translate(219.120000, 11.625126)">
                            <mask id="mask-11" fill="white">
                                <use xlink:href="#path-10"></use>
                            </mask>
                            <g id="Clip-105"></g>
                            <polygon id="Fill-104" fill="url(#linearGradient-12)" mask="url(#mask-11)" points="0.1232 38.992215 6.9872 186.112053 110.88 177.078162 94.32412 24.9792089 18.03076 0.0642636917"></polygon>
                        </g>
                        <g id="Group-109" stroke-width="1" fill="none" transform="translate(0.000000, 11.625126)">
                            <mask id="mask-14" fill="white">
                                <use xlink:href="#path-13"></use>
                            </mask>
                            <g id="Clip-108"></g>
                            <polygon id="Fill-107" fill="url(#linearGradient-12)" mask="url(#mask-14)" points="16.55588 24.9792089 0 177.078162 103.89236 186.112053 110.7568 38.992215 92.8488 0.0642636917"></polygon>
                        </g>
                        <g id="Group-112" stroke-width="1" fill="none" transform="translate(90.640000, 10.304639)">
                            <mask id="mask-16" fill="white">
                                <use xlink:href="#path-15"></use>
                            </mask>
                            <g id="Clip-111"></g>
                            <polygon id="Fill-110" fill="url(#linearGradient-17)" mask="url(#mask-16)" points="17.13316 0.324399594 0.28292 188.480126 151.74236 188.480126 131.63832 0.324399594"></polygon>
                        </g>
                        <g id="Group-162" stroke-width="1" fill="none" transform="translate(0.000000, 0.180907)">
                            <path d="M191.906836,142.443994 L138.098796,142.443994 L138.098796,161.543515 C138.098796,176.407355 150.143796,188.457237 165.002596,188.457237 C179.861836,188.457237 191.906836,176.407355 191.906836,161.543515 L191.906836,142.443994 Z" id="Fill-113" fill="#111213"></path>
                            <path d="M156.20968,124.746389 L156.20968,142.35156 C156.20968,147.20787 160.14504,151.145562 165,151.145562 L165,151.145562 C169.85452,151.145562 173.79032,147.20787 173.79032,142.35156 L173.79032,124.746389 L156.20968,124.746389 Z" id="Fill-115" fill="#606060"></path>
                            <path d="M156.20968,122.642282 L156.20968,140.247452 C156.20968,145.104203 160.14504,149.041454 165,149.041454 L165,149.041454 C169.85452,149.041454 173.79032,145.104203 173.79032,140.247452 L173.79032,122.642282 L156.20968,122.642282 Z" id="Fill-117" fill="#202227"></path>
                            <path d="M139.576228,115.581639 C134.737988,115.581639 130.815828,119.504805 130.815828,124.344829 L130.815828,127.078237 C130.815828,131.918261 134.737988,135.841868 139.576228,135.841868 L151.069028,135.841868 L151.069028,115.581639 L139.576228,115.581639 Z" id="Fill-119" fill="#202227"></path>
                            <mask id="mask-19" fill="white">
                                <use xlink:href="#path-18"></use>
                            </mask>
                            <g id="Clip-122"></g>
                            <polygon id="Fill-121" fill="#F9EEA5" mask="url(#mask-19)" points="139.57636 135.842 141.19952 135.842 141.19952 115.581771 139.57636 115.581771"></polygon>
                            <path d="M190.423728,115.581639 C195.261968,115.581639 199.184128,119.504805 199.184128,124.344829 L199.184128,127.078237 C199.184128,131.918261 195.261968,135.841868 190.423728,135.841868 L178.930928,135.841868 L178.930928,115.581639 L190.423728,115.581639 Z" id="Fill-123" fill="#202227" mask="url(#mask-19)"></path>
                            <polygon id="Fill-124" fill="#F9EEA5" mask="url(#mask-19)" points="188.80048 135.842 190.42364 135.842 190.42364 115.581771 188.80048 115.581771"></polygon>
                            <path d="M158.944412,92.6024832 C148.837612,92.6024832 141.021012,101.468232 142.282932,111.49953 L144.020932,125.310061 C145.412212,136.369578 153.982092,145.156098 165.000132,146.819911 C176.017732,145.156098 184.587612,136.369578 185.978892,125.310061 L187.716892,111.49953 C188.978812,101.468232 181.162212,92.6024832 171.055412,92.6024832 L158.944412,92.6024832 Z" id="Fill-125" fill="#111213" mask="url(#mask-19)"></path>
                            <path d="M187.695024,92.6024832 L169.883384,92.6024832 L169.883384,101.887266 L187.695024,101.887266 C190.258024,101.887266 192.335704,99.8088199 192.335704,97.2448746 C192.335704,94.6809294 190.258024,92.6024832 187.695024,92.6024832" id="Fill-126" fill="#111213" mask="url(#mask-19)"></path>
                            <path d="M179.541472,83.6999371 L166.946472,96.299142 L173.509952,102.864602 L186.104512,90.2653976 C187.916872,88.4523692 187.916872,85.5129655 186.104512,83.6999371 C184.292152,81.8869087 181.353832,81.8869087 179.541472,83.6999371" id="Fill-127" fill="#111213" mask="url(#mask-19)"></path>
                            <path d="M187.463628,113.093225 L187.463628,113.093225 C187.463628,105.825266 181.573788,99.9336939 174.308508,99.9336939 L164.999868,99.9336939 L155.691668,99.9336939 C148.425948,99.9336939 142.536548,105.825266 142.536548,113.093225 C142.536548,113.093225 142.434908,119.812743 143.328988,119.812743 C143.328988,111.934278 149.713388,105.547524 157.588508,105.547524 L164.999868,105.547524 L172.411668,105.547524 C180.286788,105.547524 186.670748,111.934278 186.670748,119.812743 C187.565268,119.812743 187.463628,113.093225 187.463628,113.093225" id="Fill-128" fill="#202227" mask="url(#mask-19)"></path>
                            <path d="M218.95456,105.667248 L217.89152,104.96959 C215.72804,103.549627 214.12468,101.422763 213.35468,98.9516919 L211.65188,93.4848765 C211.39844,92.5988298 211.94008,91.6810915 212.83856,91.4750955 C213.51968,91.3188379 214.22412,91.6212294 214.58096,92.2229312 L217.7692,97.6056757 L217.7692,85.1605276 C217.7692,84.0068623 218.7042,83.0715174 219.85744,83.0715174 C221.01068,83.0715174 221.94568,84.0068623 221.94568,85.1605276 L221.94568,87.3217243 L224.2306,87.3217243 C225.24568,87.3217243 226.06804,88.1448278 226.06804,89.1602822 L226.06804,90.3773308 L228.76832,90.3773308 C230.12792,90.3773308 231.22968,91.4803775 231.22968,92.8400387 L231.22968,99.8531442 C231.22968,102.024905 230.51468,104.135923 229.19468,105.859599 L226.72364,109.086428 L218.95456,105.667248 Z" id="Fill-129" fill="#606060" mask="url(#mask-19)"></path>
                            <path d="M224.59162,100.166496 C221.24938,99.4032544 217.9199,100.809133 216.06618,103.458469 C216.61838,104.020116 217.2247,104.532025 217.8913,104.969546 L218.95434,105.667204 L226.72386,109.086384 L229.19446,105.859555 C229.53018,105.421153 229.82542,104.958102 230.08106,104.475684 C229.02242,102.370828 227.07146,100.732985 224.59162,100.166496" id="Fill-130" fill="#202227" mask="url(#mask-19)"></path>
                            <path d="M191.906836,142.443994 L207.689636,137.945535 L214.363996,109.787915 C215.400636,105.414022 219.768516,102.69426 224.149156,103.695189 C228.607236,104.713284 231.366476,109.187533 230.275276,113.630091 L222.531276,145.166838 C221.435236,149.628763 218.255356,153.287832 213.990876,154.993901 L187.850916,165.450836 L191.906836,142.443994 Z" id="Fill-131" fill="#111213" mask="url(#mask-19)"></path>
                            <path d="M209.817696,138.678098 C209.841016,138.681179 209.864336,138.6847 209.888096,138.687781 C213.550216,139.204532 213.942256,144.363233 210.420056,145.490489 L197.589656,149.596323 C195.404616,150.295741 193.122336,148.746369 193.014976,146.454004 C193.013216,146.420552 193.011456,146.38754 193.009696,146.354087 C192.924776,144.741333 193.931936,143.273832 195.473696,142.795375 L208.330496,138.807065 C208.811856,138.65741 209.317856,138.611633 209.817696,138.678098" id="Fill-132" fill="#202227" mask="url(#mask-19)"></path>
                            <path d="M111.04522,105.667248 L112.10826,104.96959 C114.27174,103.549627 115.8751,101.422763 116.6451,98.9516919 L118.3479,93.4848765 C118.60134,92.5988298 118.0597,91.6810915 117.16122,91.4750955 C116.4801,91.3188379 115.77566,91.6212294 115.41926,92.2229312 L112.23058,97.6056757 L112.23058,85.1605276 C112.23058,84.0068623 111.29558,83.0715174 110.14234,83.0715174 C108.9891,83.0715174 108.0541,84.0068623 108.0541,85.1605276 L108.0541,87.3217243 L105.76918,87.3217243 C104.75454,87.3217243 103.93174,88.1448278 103.93174,89.1602822 L103.93174,90.3773308 L101.23146,90.3773308 C99.87186,90.3773308 98.76966,91.4803775 98.76966,92.8400387 L98.76966,99.8531442 C98.76966,102.024905 99.4851,104.135923 100.8051,105.859599 L103.27614,109.086428 L111.04522,105.667248 Z" id="Fill-133" fill="#606060" mask="url(#mask-19)"></path>
                            <path d="M105.40816,100.166496 C108.7504,99.4032544 112.07988,100.809133 113.9336,103.458469 C113.3814,104.020116 112.77508,104.532025 112.10848,104.969546 L111.04544,105.667204 L103.27592,109.086384 L100.80532,105.859555 C100.4696,105.421153 100.17436,104.958102 99.91916,104.475684 C100.97736,102.370828 102.92832,100.732985 105.40816,100.166496" id="Fill-134" fill="#202227" mask="url(#mask-19)"></path>
                            <path d="M138.092988,142.443994 L122.310188,137.945535 L115.635828,109.787915 C114.599188,105.414022 110.231308,102.69426 105.850668,103.695189 C101.392588,104.713284 98.633348,109.187533 99.724548,113.630091 L107.468548,145.166838 C108.564588,149.628763 111.744468,153.287832 116.008948,154.993901 L142.148908,165.450836 L138.092988,142.443994 Z" id="Fill-135" fill="#111213" mask="url(#mask-19)"></path>
                            <path d="M120.182084,138.678098 C120.158764,138.681179 120.135444,138.6847 120.111684,138.687781 C116.449564,139.204532 116.057524,144.363233 119.579724,145.490489 L132.410124,149.596323 C134.595164,150.295741 136.877444,148.746369 136.984804,146.454004 C136.986564,146.420552 136.988324,146.38754 136.990084,146.354087 C137.075004,144.741333 136.067844,143.273832 134.526084,142.795375 L121.669284,138.807065 C121.187924,138.65741 120.681924,138.611633 120.182084,138.678098" id="Fill-136" fill="#202227" mask="url(#mask-19)"></path>
                            <path d="M187.65912,154.537276 L187.65912,152.767384 L187.65912,142.443818 L177.33936,142.443818 L177.33936,147.428656 C177.33936,153.921049 172.3194,159.449047 165.83644,159.741755 C165.6226,159.751879 165.40788,159.75628 165.19184,159.75628 C164.9758,159.75628 164.76064,159.751879 164.54724,159.741755 C158.06384,159.449047 153.04432,153.921049 153.04432,147.428656 L153.04432,142.443818 L142.34088,142.443818 L142.34088,152.767384 L142.34088,154.537276 L142.34044,154.537276 C142.34044,162.366443 138.4306,163.789487 138.20488,163.864755 C139.38232,177.640954 150.9266,188.457501 165.00264,188.457501 C179.07824,188.457501 190.62208,177.641834 191.8004,163.866516 C191.6882,163.830422 187.65912,162.487047 187.65912,154.537276" id="Fill-137" fill="#202227" mask="url(#mask-19)"></path>
                            <path d="M158.360884,123.660597 L157.229204,116.930956 C156.718804,113.896477 153.846044,111.850603 150.813124,112.361191 C147.780204,112.87178 145.735084,115.745599 146.245484,118.779198 L147.377164,125.509279 C147.887564,128.543317 150.759884,130.589191 153.793244,130.078603 C156.826164,129.568455 158.871284,126.695076 158.360884,123.660597" id="Fill-138" fill="#202227" mask="url(#mask-19)"></path>
                            <path d="M157.516128,134.469046 C157.516128,135.984965 156.287648,137.213898 154.772288,137.213898 C153.256928,137.213898 152.028888,135.984965 152.028888,134.469046 C152.028888,132.953567 153.256928,131.724634 154.772288,131.724634 C156.287648,131.724634 157.516128,132.953567 157.516128,134.469046" id="Fill-139" fill="#202227" mask="url(#mask-19)"></path>
                            <path d="M165,19.4173185 C146.15876,19.4173185 130.83004,26.3199432 130.83004,34.804071 C130.83004,43.2881988 146.15876,50.1908235 165,50.1908235 C183.84124,50.1908235 199.16952,43.2881988 199.16952,34.804071 C199.16952,26.3199432 183.84124,19.4173185 165,19.4173185 M165,51.0711481 C145.67344,51.0711481 129.95004,43.7736978 129.95004,34.804071 C129.95004,25.8340041 145.67344,18.5369939 165,18.5369939 C184.32656,18.5369939 200.04952,25.8340041 200.04952,34.804071 C200.04952,43.7736978 184.32656,51.0711481 165,51.0711481" id="Fill-140" fill="#F9EEA5" mask="url(#mask-19)"></path>
                            <path d="M185.767032,27.6174976 C184.828952,27.1989032 183.818272,26.8053982 182.763152,26.4484266 L182.998992,25.7512095 C184.076112,26.1156639 185.107912,26.517532 186.067112,26.9458099 L185.767032,27.6174976 Z" id="Fill-141" fill="#D795FF" mask="url(#mask-19)"></path>
                            <path d="M165,49.8057256 C148.57084,49.8057256 135.20496,43.8058736 135.20496,36.4305146 C135.20496,29.0555957 148.57084,23.056184 165,23.056184 C168.20056,23.056184 171.34964,23.2802266 174.35924,23.72347 L174.25188,24.4514984 C171.27792,24.0135369 168.16492,23.7916951 165,23.7916951 C148.97652,23.7916951 135.94064,29.4614254 135.94064,36.4305146 C135.94064,43.400044 148.97652,49.0697742 165,49.0697742 C181.02348,49.0697742 194.05936,43.400044 194.05936,36.4305146 C194.05936,34.2622753 192.74728,32.1142834 190.2648,30.2180643 L190.7114,29.6330886 C193.38308,31.6736809 194.79504,34.0241475 194.79504,36.4305146 C194.79504,43.8058736 181.42916,49.8057256 165,49.8057256" id="Fill-142" fill="#D795FF" mask="url(#mask-19)"></path>
                            <path d="M165,37.73093 C151.75336,37.73093 140.976,42.0784128 140.976,47.4228631 C140.976,52.7664331 151.75336,57.1139158 165,57.1139158 C178.24664,57.1139158 189.024,52.7664331 189.024,47.4228631 C189.024,42.0784128 178.24664,37.73093 165,37.73093 M165,57.9511045 C151.05948,57.9511045 140.13912,53.3267596 140.13912,47.4228631 C140.13912,41.5180862 151.05948,36.8937414 165,36.8937414 C178.94052,36.8937414 189.86088,41.5180862 189.86088,47.4228631 C189.86088,53.3267596 178.94052,57.9511045 165,57.9511045" id="Fill-143" fill="#F9EEA5" mask="url(#mask-19)"></path>
                            <path d="M165,56.8444485 C153.96788,56.8444485 145.32628,53.5036168 145.32628,49.2393247 L145.95856,49.2393247 C145.95856,53.0189982 154.67848,56.2119353 165,56.2119353 C175.32152,56.2119353 184.04144,53.0189982 184.04144,49.2393247 C184.04144,45.4596513 175.32152,42.2667142 165,42.2667142 L165,41.6337609 C176.03212,41.6337609 184.67372,44.9745925 184.67372,49.2393247 C184.67372,53.5036168 176.03212,56.8444485 165,56.8444485" id="Fill-144" fill="#D795FF" mask="url(#mask-19)"></path>
                            <path d="M165,61.0066669 C159.44324,61.0066669 154.92224,62.7039327 154.92224,64.7903018 C154.92224,66.876671 159.44324,68.5739367 165,68.5739367 C170.55676,68.5739367 175.07776,66.876671 175.07776,64.7903018 C175.07776,62.7039327 170.55676,61.0066669 165,61.0066669 M165,68.9040584 C159.16384,68.9040584 154.59224,67.0971923 154.59224,64.7903018 C154.59224,62.4834114 159.16384,60.6765452 165,60.6765452 C170.83616,60.6765452 175.40776,62.4834114 175.40776,64.7903018 C175.40776,67.0971923 170.83616,68.9040584 165,68.9040584" id="Fill-145" fill="#FFA8F9" mask="url(#mask-19)"></path>
                            <polygon id="Fill-146" fill="#B457FF" mask="url(#mask-19)" points="217.679044 71.384857 210.881484 71.384857 211.587244 70.0643702 216.891884 70.0643702 238.934564 29.2410801 231.349844 28.2727231 231.517044 26.9628002 241.010044 28.1750071"></polygon>
                            <polyline id="Fill-147" fill="#F743EE" mask="url(#mask-19)" points="238.934388 29.2410361 230.904388 28.215458 231.517308 26.9627562"></polyline>
                            <polygon id="Fill-148" fill="#B457FF" mask="url(#mask-19)" points="112.320956 71.384857 119.118516 71.384857 118.412756 70.0643702 113.108116 70.0643702 91.065436 29.2410801 98.650156 28.2727231 98.482956 26.9628002 88.989956 28.1750071"></polygon>
                            <polyline id="Fill-149" fill="#F743EE" mask="url(#mask-19)" points="91.065612 29.2410361 99.095612 28.215458 98.482692 26.9627562"></polyline>
                            <path d="M228.320488,154.218775 L219.587808,154.218775 C217.244368,154.218775 215.344888,156.179258 215.344888,158.598389 L215.344888,216.559838 L232.563848,216.559838 L232.563848,158.598389 C232.563848,156.179258 230.663928,154.218775 228.320488,154.218775" id="Fill-150" fill="#111213" mask="url(#mask-19)"></path>
                            <path d="M110.417648,154.218775 L101.684968,154.218775 C99.341528,154.218775 97.442048,156.179258 97.442048,158.598389 L97.442048,216.559838 L114.661008,216.559838 L114.661008,158.598389 C114.661008,156.179258 112.761088,154.218775 110.417648,154.218775" id="Fill-151" fill="#111213" mask="url(#mask-19)"></path>
                            <path d="M219.984116,157.198013 L219.984116,157.198013 C218.822956,157.198013 217.881796,158.169451 217.881796,159.368013 L217.881796,184.029425 C217.881796,185.227987 218.822956,186.199865 219.984116,186.199865 C221.145276,186.199865 222.086436,185.227987 222.086436,184.029425 L222.086436,159.368013 C222.086436,158.169451 221.145276,157.198013 219.984116,157.198013" id="Fill-152" fill="#202227" mask="url(#mask-19)"></path>
                            <path d="M101.588432,157.198013 L101.588432,157.198013 C100.427272,157.198013 99.486112,158.169451 99.486112,159.368013 L99.486112,184.029425 C99.486112,185.227987 100.427272,186.199865 101.588432,186.199865 C102.749592,186.199865 103.690752,185.227987 103.690752,184.029425 L103.690752,159.368013 C103.690752,158.169451 102.749592,157.198013 101.588432,157.198013" id="Fill-153" fill="#202227" mask="url(#mask-19)"></path>
                            <path d="M219.72478,216.55975 L219.72478,216.55975 C218.71586,208.589291 217.70166,200.618833 216.6835,192.649695 C215.65346,187.966368 214.58646,183.320456 210.95206,179.937809 C208.27246,177.312681 206.3677,173.510119 205.43402,168.973806 C205.36714,168.648086 205.3337,168.485667 205.26682,168.160387 C203.70482,159.913946 195.10238,156.85746 187.92114,158.971119 C180.26646,160.624809 172.82826,161.519218 165.00286,161.724334 C157.18538,161.519658 149.7463,160.626569 142.08458,158.971119 C135.1383,157.175697 125.9621,159.696506 124.7389,168.160387 C124.67202,168.485667 124.63858,168.648086 124.5717,168.973806 C123.63802,173.510119 121.73326,177.312681 119.05366,179.937809 C115.41926,183.320456 114.35226,187.966368 113.32222,192.649695 C112.30362,200.618833 111.28986,208.589291 110.28094,216.55975 L219.72478,216.55975 Z" id="Fill-154" fill="#111213" mask="url(#mask-19)"></path>
                            <path d="M111.424412,216.55975 C112.055812,211.59736 112.688092,206.634531 113.322132,201.672141 C114.352172,196.988815 115.507172,192.346863 119.053572,188.960255 C121.730972,186.403352 123.637932,182.532565 124.571612,177.996253 C124.638492,177.670533 124.671932,177.508113 124.738812,177.182833 C125.962012,168.718953 135.138652,166.198143 142.084492,167.993565 C149.746212,169.648575 157.185292,170.542105 165.002772,170.74678 C172.828612,170.541665 180.266372,169.647255 187.921052,167.993565 C195.102292,165.879906 203.704732,168.936393 205.266732,177.182833 C205.333612,177.508113 205.367052,177.670533 205.433932,177.996253 C206.367612,182.532565 208.274572,186.403352 210.951972,188.960255 C214.498372,192.346863 215.653372,196.988815 216.683412,201.672141 C217.317892,206.634531 217.950172,211.59736 218.581132,216.55975 L219.724692,216.55975 C218.715772,208.589291 217.702012,200.618833 216.683412,192.649695 C215.653372,187.966368 214.498372,183.324417 210.951972,179.937809 C208.274572,177.380906 206.367612,173.510119 205.433932,168.973806 C205.367052,168.648086 205.333612,168.485667 205.266732,168.160387 C203.704732,159.913946 195.102292,156.85746 187.921052,158.971119 C180.266372,160.624809 172.828612,161.519218 165.002772,161.724334 C157.185292,161.519658 149.746212,160.626569 142.084492,158.971119 C135.138652,157.175697 125.962012,159.696506 124.738812,168.160387 C124.671932,168.485667 124.638492,168.648086 124.571612,168.973806 C123.637932,173.510119 121.730972,177.380906 119.053572,179.937809 C115.507172,183.324417 114.352172,187.966368 113.322132,192.649695 C112.303972,200.618833 111.289772,208.589291 110.280852,216.55975 L111.424412,216.55975 Z" id="Fill-155" fill="#2C353C" mask="url(#mask-19)"></path>
                            <path d="M185.01142,185.228295 C171.59318,186.754778 158.4165,186.755218 144.9943,185.228295 C142.24782,184.870443 140.02934,186.803636 140.02934,189.647084 C140.02934,192.490532 142.24782,195.166719 144.9943,195.525011 C158.4165,197.051054 171.59318,197.050613 185.01142,195.525011 C187.7579,195.166719 189.97638,192.490532 189.97638,189.647084 C189.97638,186.803636 187.7579,184.870443 185.01142,185.228295" id="Fill-156" fill="#190726" mask="url(#mask-19)"></path>
                            <path d="M206.813948,68.9042345 L211.534708,61.421916 C211.716868,61.1340499 212.085148,60.952703 212.488188,60.952703 C212.978348,60.952703 213.296028,61.3664556 213.075148,61.7163846 L208.540068,68.9042345 L206.813948,68.9042345 Z" id="Fill-157" fill="#B457FF" mask="url(#mask-19)"></path>
                            <path d="M203.647576,68.9042345 L206.008176,65.2090722 C206.189456,64.9212061 206.558176,64.7398592 206.961216,64.7398592 C207.451376,64.7398592 207.769496,65.1536118 207.548176,65.5035408 L205.373696,68.9042345 L203.647576,68.9042345 Z" id="Fill-158" fill="#B457FF" mask="url(#mask-19)"></path>
                            <path d="M200.481028,68.9042345 L205.202228,61.421916 C205.383948,61.1340499 205.752228,60.952703 206.155268,60.952703 C206.645428,60.952703 206.963548,61.3664556 206.742228,61.7163846 L202.207148,68.9042345 L200.481028,68.9042345 Z" id="Fill-159" fill="#F9EEA5" mask="url(#mask-19)"></path>
                            <path d="M197.61412,68.9042345 L204.20444,58.4208897 C204.38616,58.1330235 204.75488,57.9512365 205.15748,57.9512365 C205.64764,57.9512365 205.96576,58.3654292 205.74488,58.7153582 L199.34024,68.9042345 L197.61412,68.9042345 Z" id="Fill-160" fill="#B457FF" mask="url(#mask-19)"></path>
                            <path d="M194.447792,68.9042345 L198.112112,63.1332669 C198.293832,62.8454008 198.662552,62.6636138 199.065152,62.6636138 C199.555312,62.6636138 199.873432,63.0778065 199.652552,63.4277355 L196.173912,68.9042345 L194.447792,68.9042345 Z" id="Fill-161" fill="#F9EEA5" mask="url(#mask-19)"></path>
                        </g>
                    </g>
                </g>
                <path d="M329,31 C367.666667,49.6666667 389.333333,82.6666667 394,130" id="Path-2" stroke="#FE7857" stroke-width="2" stroke-linecap="round" stroke-linejoin="round"></path>
                <circle id="Oval" fill="#FE7857" cx="321.5" cy="27.5" r="1.5"></circle>
                <path d="M7.42622173,164.940109 C46.0928884,183.606775 67.7595551,216.606775 72.4262217,263.940109" id="Path-2" stroke="#00C3FF" stroke-width="2" stroke-linecap="round" stroke-linejoin="round" transform="translate(39.926222, 214.440109) rotate(-171.000000) translate(-39.926222, -214.440109) "></path>
                <circle id="Oval" fill="#00C3FF" transform="translate(71.142729, 273.044969) rotate(-171.000000) translate(-71.142729, -273.044969) " cx="71.1427287" cy="273.044969" r="1.5"></circle>
                <path d="M337,270 C354.333333,264 365.666667,254.333333 371,241" id="Path-3" stroke="#F9ECA0" stroke-width="2" stroke-linecap="round" stroke-linejoin="round"></path>
                <circle id="Oval" fill="#F9ECA0" cx="373.5" cy="231.5" r="1.5"></circle>
                <path d="M94,46 C113.333333,48.6666667 126,55.6666667 132,67 C135,53 152,42 161,40" id="Path-4" stroke="#CE85FF" stroke-width="2" stroke-linecap="round" stroke-linejoin="round"></path>
                <circle id="Oval" fill="#CE85FF" transform="translate(168.716184, 38.716184) rotate(-171.000000) translate(-168.716184, -38.716184) " cx="168.716184" cy="38.7161842" r="1.5"></circle>
            </g>
        </g>
    </g>
</svg>