<?xml version="1.0" encoding="UTF-8"?>
<svg width="50px" height="50px" viewBox="0 0 50 50" version="1.1" xmlns="http://www.w3.org/2000/svg" xmlns:xlink="http://www.w3.org/1999/xlink">
    <!-- Generator: sketchtool 61.2 (101010) - https://sketch.com -->
    <title>B22366D2-BCC0-4CCB-B1F7-DA4021AF6549</title>
    <desc>Created with sketchtool.</desc>
    <g id="Osu-Responsive" stroke="none" stroke-width="1" fill="none" fill-rule="evenodd">
        <g id="Assets" transform="translate(-129.000000, -842.000000)" fill="#FFFFFF">
            <g id="White-logo" transform="translate(129.000000, 842.000000)">
                <path d="M38.6167,16.56665 C39.0998667,16.4999833 39.5833667,16.4499833 40.0500333,16.4499833 C40.5333667,16.4499833 41.0165333,16.4833167 41.5165333,16.56665 L41.3333667,25.71665 C40.9000333,25.7833167 40.4833667,25.8333167 40.0833667,25.8333167 C39.6667,25.8333167 39.2333667,25.7999833 38.8167,25.71665 L38.6167,16.56665 Z M38.6832,30.01665 C38.6167,29.5499833 38.5667,29.0999833 38.5667,28.6499833 C38.5667,28.1999833 38.5998667,27.7333167 38.6832,27.26665 C39.1500333,27.1999833 39.5998667,27.1499833 40.0500333,27.1499833 C40.5000333,27.1499833 40.9667,27.1833167 41.4332,27.26665 C41.5000333,27.7333167 41.5500333,28.1999833 41.5500333,28.6333167 C41.5500333,29.0999833 41.5165333,29.5499833 41.4332,30.01665 C40.9667,30.0833167 40.5000333,30.1333167 40.0667,30.1333167 C39.5998667,30.11665 39.1500333,30.0833167 38.6832,30.01665 L38.6832,30.01665 Z M27.7000333,20.3499833 C28.1500333,20.2833167 28.5833667,20.2333167 29.0333667,20.2333167 C29.4667,20.2333167 29.9167,20.26665 30.3667,20.3499833 L30.3667,25.46665 C30.3667,25.9833167 30.4000333,26.3999833 30.4833667,26.7333167 C30.5667,27.06665 30.6832,27.3333167 30.8498667,27.51665 C31.0165333,27.71665 31.2333667,27.8499833 31.4833667,27.9333167 C31.7333667,28.01665 32.0333667,28.0499833 32.3667,28.0499833 C32.8333667,28.0499833 33.2167,27.9999833 33.5333667,27.91665 L33.5333667,20.3499833 C33.9833667,20.2833167 34.4167,20.2333167 34.8498667,20.2333167 C35.2833667,20.2333167 35.7333667,20.26665 36.1832,20.3499833 L36.1832,29.6499833 C35.7833667,29.7833167 35.2500333,29.91665 34.5998667,30.0499833 C33.9500333,30.1833167 33.2665333,30.2499833 32.5500333,30.2499833 C31.9167,30.2499833 31.3000333,30.1999833 30.7167,30.0999833 C30.1333667,29.9999833 29.6167,29.7833167 29.1667,29.46665 C28.7167,29.1499833 28.3667,28.66665 28.1167,28.0499833 C27.8498667,27.4333167 27.7167,26.5999833 27.7167,25.56665 L27.7167,20.3499833 L27.7000333,20.3499833 Z M21.1500333,25.7999833 C20.4500333,25.5999833 19.9000333,25.2999833 19.5167,24.91665 C19.1167,24.51665 18.9333667,23.9333167 18.9333667,23.1499833 C18.9333667,22.1999833 19.2667,21.46665 19.9500333,20.91665 C20.6333667,20.3833167 21.5500333,20.11665 22.7333667,20.11665 C23.2167,20.11665 23.7000333,20.16665 24.1667,20.2499833 C24.6333667,20.3333167 25.1167,20.46665 25.5998667,20.6499833 C25.5667,20.96665 25.5165333,21.31665 25.4167,21.66665 C25.3167,22.01665 25.2000333,22.31665 25.0667,22.5833167 C24.7667,22.46665 24.4333667,22.3499833 24.0833667,22.2499833 C23.7167,22.1499833 23.3333667,22.11665 22.9500333,22.11665 C22.5333667,22.11665 22.2000333,22.1833167 21.9667,22.31665 C21.7333667,22.4499833 21.6167,22.6499833 21.6167,22.9499833 C21.6167,23.21665 21.7000333,23.41665 21.8667,23.5333167 C22.0333667,23.6499833 22.2667,23.7499833 22.5833667,23.8499833 L23.6500333,24.16665 C24.0000333,24.26665 24.3167,24.3833167 24.6000333,24.5333167 C24.8833667,24.6833167 25.1167,24.8499833 25.3167,25.06665 C25.5165333,25.2833167 25.6667,25.5333167 25.7833667,25.8499833 C25.9000333,26.16665 25.9500333,26.5499833 25.9500333,26.9833167 C25.9500333,27.4499833 25.8498667,27.86665 25.6667,28.26665 C25.4667,28.66665 25.2000333,29.01665 24.8333667,29.2999833 C24.4667,29.5999833 24.0167,29.81665 23.5000333,29.9999833 C22.9833667,30.16665 22.3833667,30.2499833 21.7167,30.2499833 C21.4167,30.2499833 21.1500333,30.2333167 20.9000333,30.21665 C20.6500333,30.1999833 20.4167,30.16665 20.1833667,30.11665 C19.9500333,30.06665 19.7333667,30.01665 19.5000333,29.9499833 C19.2833667,29.8833167 19.0333667,29.7999833 18.7667,29.6999833 C18.7833667,29.36665 18.8500333,29.01665 18.9500333,28.6833167 C19.0500333,28.3333167 19.1667,27.9999833 19.3167,27.6833167 C19.7333667,27.8499833 20.1167,27.96665 20.4833667,28.0499833 C20.8500333,28.1333167 21.2333667,28.16665 21.6333667,28.16665 C21.8000333,28.16665 22.0000333,28.1499833 22.2000333,28.11665 C22.4000333,28.0833167 22.6000333,28.0333167 22.7667,27.9499833 C22.9333667,27.86665 23.0833667,27.76665 23.2000333,27.6333167 C23.3167,27.4999833 23.3833667,27.3333167 23.3833667,27.11665 C23.3833667,26.81665 23.3000333,26.5999833 23.1167,26.46665 C22.9333667,26.3333167 22.6833667,26.21665 22.3667,26.11665 L21.1500333,25.7999833 Z M12.5167,28.21665 C13.2167,28.21665 13.7167,27.9499833 14.0167,27.4333167 C14.3167,26.91665 14.4667,26.16665 14.4667,25.1999833 C14.4667,24.2333167 14.3167,23.4833167 14.0167,22.96665 C13.7167,22.4499833 13.2167,22.1833167 12.5167,22.1833167 C11.8333667,22.1833167 11.3333667,22.4499833 11.0333667,22.96665 C10.7333667,23.4833167 10.5833667,24.2333167 10.5833667,25.1999833 C10.5833667,26.16665 10.7333667,26.91665 11.0333667,27.4333167 C11.3333667,27.96665 11.8333667,28.21665 12.5167,28.21665 L12.5167,28.21665 Z M12.5167,30.2333167 C11.7333667,30.2333167 11.0500333,30.0999833 10.4667,29.8499833 C9.88336667,29.5999833 9.40003333,29.2333167 9.03336667,28.7833167 C8.65003333,28.3333167 8.3667,27.7999833 8.1667,27.1833167 C7.9667,26.56665 7.88336667,25.91665 7.88336667,25.1999833 C7.88336667,24.4833167 7.98336667,23.81665 8.1667,23.1999833 C8.3667,22.5833167 8.65003333,22.0333167 9.03336667,21.5833167 C9.4167,21.1333167 9.90003333,20.76665 10.4667,20.4999833 C11.0333667,20.2333167 11.7333667,20.0999833 12.5167,20.0999833 C13.3000333,20.0999833 13.9833667,20.2333167 14.5667,20.4999833 C15.1500333,20.76665 15.6333667,21.11665 16.0333667,21.5833167 C16.4167,22.0333167 16.7000333,22.5833167 16.9000333,23.1999833 C17.0833667,23.81665 17.1833667,24.4833167 17.1833667,25.1999833 C17.1833667,25.91665 17.0833667,26.56665 16.9000333,27.1833167 C16.7167,27.7999833 16.4333667,28.3333167 16.0333667,28.7833167 C15.6500333,29.2333167 15.1667,29.5999833 14.5667,29.8499833 C14.0000333,30.11665 13.3000333,30.2333167 12.5167,30.2333167 L12.5167,30.2333167 Z" id="Fill-1"></path>
                <path d="M25,47.5 C12.5666667,47.5 2.5,37.4333333 2.5,25 C2.5,12.5666667 12.5666667,2.5 25,2.5 C37.4333333,2.5 47.5,12.5666667 47.5,25 C47.5,37.4333333 37.4333333,47.5 25,47.5 M25,0 C11.2,0 0,11.2 0,25 C0,38.8 11.2,50 25,50 C38.8,50 50,38.8 50,25 C50,11.2 38.8,0 25,0" id="Fill-3"></path>
            </g>
        </g>
    </g>
</svg>